<?xml version="1.0" encoding="UTF-8"?>
<!DOCTYPE svg PUBLIC "-//W3C//DTD SVG 1.1//EN" "http://www.w3.org/Graphics/SVG/1.1/DTD/svg11.dtd">
<svg xmlns="http://www.w3.org/2000/svg" version="1.1" width="2481px" height="1080px" style="shape-rendering:geometricPrecision; text-rendering:geometricPrecision; image-rendering:optimizeQuality; fill-rule:evenodd; clip-rule:evenodd" xmlns:xlink="http://www.w3.org/1999/xlink">
<g><path style="opacity:1" fill="#fdfdfd" d="M 595.5,-0.5 C 598.833,-0.5 602.167,-0.5 605.5,-0.5C 608.827,0.827014 611.16,3.16035 612.5,6.5C 612.66,8.15298 613.326,9.48631 614.5,10.5C 615.787,13.698 616.453,17.0314 616.5,20.5C 616.41,23.1522 617.076,25.4855 618.5,27.5C 618.5,27.8333 618.5,28.1667 618.5,28.5C 618.41,31.1522 619.076,33.4855 620.5,35.5C 621.787,38.698 622.453,42.0314 622.5,45.5C 622.259,47.8984 622.926,49.8984 624.5,51.5C 624.5,52.1667 624.5,52.8333 624.5,53.5C 624.41,56.1522 625.076,58.4855 626.5,60.5C 628.214,66.3992 629.547,72.3992 630.5,78.5C 630.259,80.8984 630.926,82.8984 632.5,84.5C 632.5,85.1667 632.5,85.8333 632.5,86.5C 632.41,89.1522 633.076,91.4855 634.5,93.5C 636.216,99.4156 637.55,105.416 638.5,111.5C 638.41,114.152 639.076,116.485 640.5,118.5C 642.214,124.399 643.547,130.399 644.5,136.5C 644.259,138.898 644.926,140.898 646.5,142.5C 648.266,147.803 646.6,151.636 641.5,154C 592.162,167.001 542.828,180.001 493.5,193C 482.342,195.501 475.675,191.167 473.5,180C 473.592,176.199 474.926,173.032 477.5,170.5C 478.906,170.027 479.573,169.027 479.5,167.5C 480.906,167.027 481.573,166.027 481.5,164.5C 482.906,164.027 483.573,163.027 483.5,161.5C 483.932,160.29 484.599,159.29 485.5,158.5C 486.906,158.027 487.573,157.027 487.5,155.5C 490.143,150.868 493.143,146.535 496.5,142.5C 497.906,142.027 498.573,141.027 498.5,139.5C 499.906,139.027 500.573,138.027 500.5,136.5C 501.906,136.027 502.573,135.027 502.5,133.5C 503.906,133.027 504.573,132.027 504.5,130.5C 509.018,122.783 514.018,115.449 519.5,108.5C 520.906,108.027 521.573,107.027 521.5,105.5C 522.906,105.027 523.573,104.027 523.5,102.5C 524.906,102.027 525.573,101.027 525.5,99.5C 526.906,99.0269 527.573,98.0269 527.5,96.5C 528.906,96.0269 529.573,95.0269 529.5,93.5C 530.906,93.0269 531.573,92.0269 531.5,90.5C 531.932,89.2905 532.599,88.2905 533.5,87.5C 535.262,86.7377 536.262,85.4044 536.5,83.5C 537.34,81.1475 538.674,79.1475 540.5,77.5C 541.906,77.0269 542.573,76.0269 542.5,74.5C 542.932,73.2905 543.599,72.2905 544.5,71.5C 545.906,71.0269 546.573,70.0269 546.5,68.5C 550.475,61.8691 554.809,55.5358 559.5,49.5C 560.906,49.0269 561.573,48.0269 561.5,46.5C 562.906,46.0269 563.573,45.0269 563.5,43.5C 564.906,43.0269 565.573,42.0269 565.5,40.5C 566.906,40.0269 567.573,39.0269 567.5,37.5C 568.906,37.0269 569.573,36.0269 569.5,34.5C 569.932,33.2905 570.599,32.2905 571.5,31.5C 572.906,31.0269 573.573,30.0269 573.5,28.5C 573.932,27.2905 574.599,26.2905 575.5,25.5C 577.262,24.7377 578.262,23.4044 578.5,21.5C 578.427,19.9731 579.094,18.9731 580.5,18.5C 581.906,18.0269 582.573,17.0269 582.5,15.5C 583.906,15.0269 584.573,14.0269 584.5,12.5C 584.932,11.2905 585.599,10.2905 586.5,9.5C 587.906,9.02694 588.573,8.02694 588.5,6.5C 590.167,3.5 592.5,1.16667 595.5,-0.5 Z"/></g>
<g><path style="opacity:0.863" fill="#c6c6c6" d="M 588.5,6.5 C 588.573,8.02694 587.906,9.02694 586.5,9.5C 586.427,7.97306 587.094,6.97306 588.5,6.5 Z"/></g>
<g><path style="opacity:0.341" fill="#bbbbbb" d="M 612.5,6.5 C 614.104,7.28696 614.771,8.6203 614.5,10.5C 613.326,9.48631 612.66,8.15298 612.5,6.5 Z"/></g>
<g><path style="opacity:0.898" fill="#cacaca" d="M 584.5,12.5 C 584.573,14.0269 583.906,15.0269 582.5,15.5C 582.427,13.9731 583.094,12.9731 584.5,12.5 Z"/></g>
<g><path style="opacity:0.937" fill="#cdcdcd" d="M 582.5,15.5 C 582.573,17.0269 581.906,18.0269 580.5,18.5C 580.427,16.9731 581.094,15.9731 582.5,15.5 Z"/></g>
<g><path style="opacity:0.961" fill="#c8c8c8" d="M 578.5,21.5 C 578.262,23.4044 577.262,24.7377 575.5,25.5C 575.738,23.5956 576.738,22.2623 578.5,21.5 Z"/></g>
<g><path style="opacity:0.42" fill="#bdbdbd" d="M 616.5,20.5 C 617.924,22.5145 618.59,24.8478 618.5,27.5C 617.076,25.4855 616.41,23.1522 616.5,20.5 Z"/></g>
<g><path style="opacity:0.753" fill="#bdbdbd" d="M 573.5,28.5 C 573.573,30.0269 572.906,31.0269 571.5,31.5C 571.427,29.9731 572.094,28.9731 573.5,28.5 Z"/></g>
<g><path style="opacity:0.804" fill="#bebebe" d="M 618.5,28.5 C 619.924,30.5145 620.59,32.8478 620.5,35.5C 619.076,33.4855 618.41,31.1522 618.5,28.5 Z"/></g>
<g><path style="opacity:0.863" fill="#c4c4c4" d="M 569.5,34.5 C 569.573,36.0269 568.906,37.0269 567.5,37.5C 567.427,35.9731 568.094,34.9731 569.5,34.5 Z"/></g>
<g><path style="opacity:0.863" fill="#c3c3c3" d="M 567.5,37.5 C 567.573,39.0269 566.906,40.0269 565.5,40.5C 565.427,38.9731 566.094,37.9731 567.5,37.5 Z"/></g>
<g><path style="opacity:1" fill="#d3d3d3" d="M 476.5,41.5 C 473.833,41.5 471.167,41.5 468.5,41.5C 471.214,39.0285 473.881,39.0285 476.5,41.5 Z"/></g>
<g><path style="opacity:1" fill="#fdfdfd" d="M 468.5,41.5 C 471.167,41.5 473.833,41.5 476.5,41.5C 480.735,44.1869 481.568,47.8536 479,52.5C 445.836,102.158 413.169,152.158 381,202.5C 375.555,210.945 369.721,219.112 363.5,227C 305.824,242.203 248.157,257.537 190.5,273C 184.755,273.96 181.088,271.626 179.5,266C 179.525,264.124 180.191,262.624 181.5,261.5C 182.906,261.027 183.573,260.027 183.5,258.5C 184.906,258.027 185.573,257.027 185.5,255.5C 186.906,255.027 187.573,254.027 187.5,252.5C 188.669,249.489 190.336,246.822 192.5,244.5C 193.906,244.027 194.573,243.027 194.5,241.5C 195.669,238.489 197.336,235.822 199.5,233.5C 200.906,233.027 201.573,232.027 201.5,230.5C 202.669,227.489 204.336,224.822 206.5,222.5C 207.906,222.027 208.573,221.027 208.5,219.5C 209.906,219.027 210.573,218.027 210.5,216.5C 211.669,213.489 213.336,210.822 215.5,208.5C 216.906,208.027 217.573,207.027 217.5,205.5C 218.11,203.566 219.11,201.899 220.5,200.5C 221.906,200.027 222.573,199.027 222.5,197.5C 225.015,192.457 228.015,187.79 231.5,183.5C 232.906,183.027 233.573,182.027 233.5,180.5C 234.669,177.489 236.336,174.822 238.5,172.5C 239.906,172.027 240.573,171.027 240.5,169.5C 241.669,166.489 243.336,163.822 245.5,161.5C 246.906,161.027 247.573,160.027 247.5,158.5C 248.669,155.489 250.336,152.822 252.5,150.5C 253.906,150.027 254.573,149.027 254.5,147.5C 255.906,147.027 256.573,146.027 256.5,144.5C 257.669,141.489 259.336,138.822 261.5,136.5C 262.906,136.027 263.573,135.027 263.5,133.5C 264.11,131.566 265.11,129.899 266.5,128.5C 267.906,128.027 268.573,127.027 268.5,125.5C 268.932,124.29 269.599,123.29 270.5,122.5C 271.906,122.027 272.573,121.027 272.5,119.5C 274.615,112.885 278.948,108.385 285.5,106C 346.493,84.3396 407.493,62.8396 468.5,41.5 Z"/></g>
<g><path style="opacity:0.902" fill="#c9c9c9" d="M 565.5,40.5 C 565.573,42.0269 564.906,43.0269 563.5,43.5C 563.427,41.9731 564.094,40.9731 565.5,40.5 Z"/></g>
<g><path style="opacity:0.918" fill="#cacaca" d="M 563.5,43.5 C 563.573,45.0269 562.906,46.0269 561.5,46.5C 561.427,44.9731 562.094,43.9731 563.5,43.5 Z"/></g>
<g><path style="opacity:0.937" fill="#cecece" d="M 561.5,46.5 C 561.573,48.0269 560.906,49.0269 559.5,49.5C 559.427,47.9731 560.094,46.9731 561.5,46.5 Z"/></g>
<g><path style="opacity:0.992" fill="#cacaca" d="M 622.5,45.5 C 623.738,47.2143 624.405,49.2143 624.5,51.5C 622.926,49.8984 622.259,47.8984 622.5,45.5 Z"/></g>
<g><path style="opacity:0.341" fill="#bdbdbd" d="M 624.5,53.5 C 625.924,55.5145 626.59,57.8478 626.5,60.5C 625.076,58.4855 624.41,56.1522 624.5,53.5 Z"/></g>
<g><path style="opacity:0.875" fill="#c6c6c6" d="M 546.5,68.5 C 546.573,70.0269 545.906,71.0269 544.5,71.5C 544.427,69.9731 545.094,68.9731 546.5,68.5 Z"/></g>
<g><path style="opacity:0.922" fill="#cccccc" d="M 542.5,74.5 C 542.573,76.0269 541.906,77.0269 540.5,77.5C 540.427,75.9731 541.094,74.9731 542.5,74.5 Z"/></g>
<g><path style="opacity:0.988" fill="#cacaca" d="M 630.5,78.5 C 631.738,80.2143 632.405,82.2143 632.5,84.5C 630.926,82.8984 630.259,80.8984 630.5,78.5 Z"/></g>
<g><path style="opacity:0.965" fill="#cbcbcb" d="M 536.5,83.5 C 536.262,85.4044 535.262,86.7377 533.5,87.5C 533.738,85.5956 534.738,84.2623 536.5,83.5 Z"/></g>
<g><path style="opacity:0.314" fill="#bbbbbb" d="M 632.5,86.5 C 633.924,88.5145 634.59,90.8478 634.5,93.5C 633.076,91.4855 632.41,89.1522 632.5,86.5 Z"/></g>
<g><path style="opacity:0.788" fill="#bfbfbf" d="M 531.5,90.5 C 531.573,92.0269 530.906,93.0269 529.5,93.5C 529.427,91.9731 530.094,90.9731 531.5,90.5 Z"/></g>
<g><path style="opacity:0.831" fill="#c2c2c2" d="M 529.5,93.5 C 529.573,95.0269 528.906,96.0269 527.5,96.5C 527.427,94.9731 528.094,93.9731 529.5,93.5 Z"/></g>
<g><path style="opacity:0.875" fill="#c4c4c4" d="M 527.5,96.5 C 527.573,98.0269 526.906,99.0269 525.5,99.5C 525.427,97.9731 526.094,96.9731 527.5,96.5 Z"/></g>
<g><path style="opacity:0.851" fill="#c4c4c4" d="M 525.5,99.5 C 525.573,101.027 524.906,102.027 523.5,102.5C 523.427,100.973 524.094,99.9731 525.5,99.5 Z"/></g>
<g><path style="opacity:0.918" fill="#c9c9c9" d="M 523.5,102.5 C 523.573,104.027 522.906,105.027 521.5,105.5C 521.427,103.973 522.094,102.973 523.5,102.5 Z"/></g>
<g><path style="opacity:0.91" fill="#cacaca" d="M 521.5,105.5 C 521.573,107.027 520.906,108.027 519.5,108.5C 519.427,106.973 520.094,105.973 521.5,105.5 Z"/></g>
<g><path style="opacity:0.427" fill="#c0c0c0" d="M 638.5,111.5 C 639.924,113.515 640.59,115.848 640.5,118.5C 639.076,116.485 638.41,114.152 638.5,111.5 Z"/></g>
<g><path style="opacity:0.898" fill="#cbcbcb" d="M 272.5,119.5 C 272.573,121.027 271.906,122.027 270.5,122.5C 270.427,120.973 271.094,119.973 272.5,119.5 Z"/></g>
<g><path style="opacity:0.725" fill="#bebebe" d="M 268.5,125.5 C 268.573,127.027 267.906,128.027 266.5,128.5C 266.427,126.973 267.094,125.973 268.5,125.5 Z"/></g>
<g><path style="opacity:0.902" fill="#c7c7c7" d="M 504.5,130.5 C 504.573,132.027 503.906,133.027 502.5,133.5C 502.427,131.973 503.094,130.973 504.5,130.5 Z"/></g>
<g><path style="opacity:0.89" fill="#c7c7c7" d="M 263.5,133.5 C 263.573,135.027 262.906,136.027 261.5,136.5C 261.427,134.973 262.094,133.973 263.5,133.5 Z"/></g>
<g><path style="opacity:0.906" fill="#c9c9c9" d="M 502.5,133.5 C 502.573,135.027 501.906,136.027 500.5,136.5C 500.427,134.973 501.094,133.973 502.5,133.5 Z"/></g>
<g><path style="opacity:0.925" fill="#cdcdcd" d="M 500.5,136.5 C 500.573,138.027 499.906,139.027 498.5,139.5C 498.427,137.973 499.094,136.973 500.5,136.5 Z"/></g>
<g><path style="opacity:0.992" fill="#cdcdcd" d="M 644.5,136.5 C 645.738,138.214 646.405,140.214 646.5,142.5C 644.926,140.898 644.259,138.898 644.5,136.5 Z"/></g>
<g><path style="opacity:0.937" fill="#cdcdcd" d="M 498.5,139.5 C 498.573,141.027 497.906,142.027 496.5,142.5C 496.427,140.973 497.094,139.973 498.5,139.5 Z"/></g>
<g><path style="opacity:0.898" fill="#cacaca" d="M 256.5,144.5 C 256.573,146.027 255.906,147.027 254.5,147.5C 254.427,145.973 255.094,144.973 256.5,144.5 Z"/></g>
<g><path style="opacity:0.812" fill="#c3c3c3" d="M 254.5,147.5 C 254.573,149.027 253.906,150.027 252.5,150.5C 252.427,148.973 253.094,147.973 254.5,147.5 Z"/></g>
<g><path style="opacity:1" fill="#fcfcfc" d="M 37.5,197.5 C 38.8333,196.833 39.8333,195.833 40.5,194.5C 80.2106,179.538 120.211,165.038 160.5,151C 168.161,150.33 171.327,153.83 170,161.5C 139.667,205.5 109.333,249.5 79,293.5C 73.919,297.695 69.5856,297.029 66,291.5C 56.3445,261.866 46.6778,232.199 37,202.5C 36.2204,200.613 36.3871,198.946 37.5,197.5 Z"/></g>
<g><path style="opacity:0.824" fill="#c3c3c3" d="M 487.5,155.5 C 487.573,157.027 486.906,158.027 485.5,158.5C 485.427,156.973 486.094,155.973 487.5,155.5 Z"/></g>
<g><path style="opacity:0.863" fill="#c6c6c6" d="M 247.5,158.5 C 247.573,160.027 246.906,161.027 245.5,161.5C 245.427,159.973 246.094,158.973 247.5,158.5 Z"/></g>
<g><path style="opacity:0.89" fill="#c9c9c9" d="M 483.5,161.5 C 483.573,163.027 482.906,164.027 481.5,164.5C 481.427,162.973 482.094,161.973 483.5,161.5 Z"/></g>
<g><path style="opacity:0.91" fill="#cbcbcb" d="M 481.5,164.5 C 481.573,166.027 480.906,167.027 479.5,167.5C 479.427,165.973 480.094,164.973 481.5,164.5 Z"/></g>
<g><path style="opacity:0.925" fill="#cdcdcd" d="M 479.5,167.5 C 479.573,169.027 478.906,170.027 477.5,170.5C 477.427,168.973 478.094,167.973 479.5,167.5 Z"/></g>
<g><path style="opacity:0.875" fill="#c8c8c8" d="M 240.5,169.5 C 240.573,171.027 239.906,172.027 238.5,172.5C 238.427,170.973 239.094,169.973 240.5,169.5 Z"/></g>
<g><path style="opacity:0.906" fill="#c9c9c9" d="M 233.5,180.5 C 233.573,182.027 232.906,183.027 231.5,183.5C 231.427,181.973 232.094,180.973 233.5,180.5 Z"/></g>
<g><path style="opacity:0.769" fill="#c1c1c1" d="M 40.5,194.5 C 39.8333,195.833 38.8333,196.833 37.5,197.5C 37.5,195.5 38.5,194.5 40.5,194.5 Z"/></g>
<g><path style="opacity:0.78" fill="#bebebe" d="M 222.5,197.5 C 222.573,199.027 221.906,200.027 220.5,200.5C 220.427,198.973 221.094,197.973 222.5,197.5 Z"/></g>
<g><path style="opacity:0.882" fill="#c7c7c7" d="M 217.5,205.5 C 217.573,207.027 216.906,208.027 215.5,208.5C 215.427,206.973 216.094,205.973 217.5,205.5 Z"/></g>
<g><path style="opacity:0.886" fill="#cbcbcb" d="M 210.5,216.5 C 210.573,218.027 209.906,219.027 208.5,219.5C 208.427,217.973 209.094,216.973 210.5,216.5 Z"/></g>
<g><path style="opacity:0.863" fill="#c5c5c5" d="M 208.5,219.5 C 208.573,221.027 207.906,222.027 206.5,222.5C 206.427,220.973 207.094,219.973 208.5,219.5 Z"/></g>
<g><path style="opacity:0.851" fill="#c4c4c4" d="M 201.5,230.5 C 201.573,232.027 200.906,233.027 199.5,233.5C 199.427,231.973 200.094,230.973 201.5,230.5 Z"/></g>
<g><path style="opacity:0.89" fill="#c9c9c9" d="M 194.5,241.5 C 194.573,243.027 193.906,244.027 192.5,244.5C 192.427,242.973 193.094,241.973 194.5,241.5 Z"/></g>
<g><path style="opacity:0.922" fill="#cccccc" d="M 187.5,252.5 C 187.573,254.027 186.906,255.027 185.5,255.5C 185.427,253.973 186.094,252.973 187.5,252.5 Z"/></g>
<g><path style="opacity:0.839" fill="#c3c3c3" d="M 185.5,255.5 C 185.573,257.027 184.906,258.027 183.5,258.5C 183.427,256.973 184.094,255.973 185.5,255.5 Z"/></g>
<g><path style="opacity:0.757" fill="#bebebe" d="M 183.5,258.5 C 183.573,260.027 182.906,261.027 181.5,261.5C 181.427,259.973 182.094,258.973 183.5,258.5 Z"/></g>
<g><path style="opacity:0.996" fill="#d7d7d7" d="M 992.5,318.5 C 697.833,318.5 403.167,318.5 108.5,318.5C 109.609,317.71 110.942,317.21 112.5,317C 219,316.833 325.5,316.667 432,316.5C 578.472,316.958 724.805,316.958 871,316.5C 910.5,316.667 950,316.833 989.5,317C 990.737,317.232 991.737,317.732 992.5,318.5 Z"/></g>
<g><path style="opacity:0.975" fill="#fefffe" d="M 1757.5,317.5 C 1766.72,316.293 1774.22,319.293 1780,326.5C 1825.5,402 1871,477.5 1916.5,553C 1899.83,553.667 1883.17,553.667 1866.5,553C 1854.97,534.298 1843.63,515.464 1832.5,496.5C 1785.17,495.333 1737.84,495.167 1690.5,496C 1679.17,515 1667.83,534 1656.5,553C 1640.82,553.833 1625.16,553.666 1609.5,552.5C 1653.13,479.036 1696.97,405.702 1741,332.5C 1744.82,325.504 1750.32,320.504 1757.5,317.5 Z M 1760.5,376.5 C 1777.64,404.496 1794.64,432.662 1811.5,461C 1778.16,461.833 1744.83,461.667 1711.5,460.5C 1727.89,432.466 1744.22,404.466 1760.5,376.5 Z"/></g>
<g><path style="opacity:1" fill="#fefefe" d="M 108.5,318.5 C 403.167,318.5 697.833,318.5 992.5,318.5C 998.976,320.325 1001.98,324.658 1001.5,331.5C 1001.33,333.5 1001.17,335.5 1001,337.5C 998.737,340.886 995.903,343.719 992.5,346C 667.988,589.757 343.654,833.757 19.5,1078C 10.7529,1080.58 4.08621,1078.08 -0.5,1070.5C -0.5,1066.83 -0.5,1063.17 -0.5,1059.5C 41.5645,970.041 83.0645,880.374 124,790.5C 258.427,688.233 393.26,586.566 528.5,485.5C 529.289,485.217 529.956,484.717 530.5,484C 445.167,483.5 359.834,483.333 274.5,483.5C 274.167,483.5 273.833,483.5 273.5,483.5C 273.027,482.094 272.027,481.427 270.5,481.5C 254.555,469.221 239.221,456.221 224.5,442.5C 224.027,441.094 223.027,440.427 221.5,440.5C 188.274,412.727 155.274,384.727 122.5,356.5C 122.027,355.094 121.027,354.427 119.5,354.5C 115.375,351.547 111.375,348.381 107.5,345C 99.3246,339.37 97.4912,332.203 102,323.5C 103.777,321.21 105.944,319.543 108.5,318.5 Z"/></g>
<g><path style="opacity:0.973" fill="#fefffe" d="M 1218.5,320.5 C 1276.83,320.5 1335.17,320.5 1393.5,320.5C 1393.5,334.5 1393.5,348.5 1393.5,362.5C 1335.5,362.333 1277.5,362.5 1219.5,363C 1205.32,366.332 1198.32,375.332 1198.5,390C 1198.74,404.825 1206.07,413.825 1220.5,417C 1261.83,417.333 1303.17,417.667 1344.5,418C 1384.81,421.815 1405.15,443.981 1405.5,484.5C 1404.46,525.704 1383.46,548.538 1342.5,553C 1281.17,553.5 1219.83,553.667 1158.5,553.5C 1158.5,539.5 1158.5,525.5 1158.5,511.5C 1219.5,511.667 1280.5,511.5 1341.5,511C 1356.97,507.525 1365.31,497.858 1366.5,482C 1365.65,464.147 1356.31,454.48 1338.5,453C 1297.17,452.667 1255.83,452.333 1214.5,452C 1171.43,444.046 1151.93,418.213 1156,374.5C 1160.19,348.31 1175.02,331.476 1200.5,324C 1206.58,322.503 1212.58,321.336 1218.5,320.5 Z"/></g>
<g><path style="opacity:0.981" fill="#fefffe" d="M 1425.5,320.5 C 1497.83,320.5 1570.17,320.5 1642.5,320.5C 1642.5,334.5 1642.5,348.5 1642.5,362.5C 1613.17,362.5 1583.83,362.5 1554.5,362.5C 1554.5,426.167 1554.5,489.833 1554.5,553.5C 1540.83,553.5 1527.17,553.5 1513.5,553.5C 1513.5,489.833 1513.5,426.167 1513.5,362.5C 1484.17,362.5 1454.83,362.5 1425.5,362.5C 1425.5,348.5 1425.5,334.5 1425.5,320.5 Z"/></g>
<g><path style="opacity:0.98" fill="#fefffe" d="M 1940.5,320.5 C 1999.17,320.333 2057.83,320.5 2116.5,321C 2160.87,325.702 2185.7,350.202 2191,394.5C 2193.79,418.543 2188.46,440.543 2175,460.5C 2166.5,470.344 2156.33,477.844 2144.5,483C 2167.68,506.014 2190.68,529.18 2213.5,552.5C 2193.84,553.666 2174.18,553.833 2154.5,553C 2135.17,531.667 2115.83,510.333 2096.5,489C 2058.17,488.5 2019.83,488.333 1981.5,488.5C 1981.5,510.167 1981.5,531.833 1981.5,553.5C 1967.83,553.5 1954.17,553.5 1940.5,553.5C 1940.5,475.833 1940.5,398.167 1940.5,320.5 Z M 1981.5,362.5 C 2026.83,362.333 2072.17,362.5 2117.5,363C 2140.16,368.43 2151.16,382.93 2150.5,406.5C 2151.35,433.139 2138.68,448.306 2112.5,452C 2068.82,452.79 2025.15,452.623 1981.5,451.5C 1981.5,421.833 1981.5,392.167 1981.5,362.5 Z"/></g>
<g><path style="opacity:0.973" fill="#fefffe" d="M 2480.5,477.5 C 2480.5,482.167 2480.5,486.833 2480.5,491.5C 2476.23,528.934 2455.23,549.434 2417.5,553C 2356.17,553.5 2294.83,553.667 2233.5,553.5C 2233.5,539.5 2233.5,525.5 2233.5,511.5C 2294.5,511.667 2355.5,511.5 2416.5,511C 2435.82,505.882 2443.65,493.382 2440,473.5C 2437.21,462.839 2430.38,456.339 2419.5,454C 2376.2,452.699 2332.87,452.032 2289.5,452C 2252.03,446.265 2232.03,424.432 2229.5,386.5C 2231.96,346.873 2252.96,325.039 2292.5,321C 2351.17,320.5 2409.83,320.333 2468.5,320.5C 2468.5,334.5 2468.5,348.5 2468.5,362.5C 2410.17,362.333 2351.83,362.5 2293.5,363C 2277.08,368.649 2270.58,380.149 2274,397.5C 2276.69,408.854 2283.86,415.354 2295.5,417C 2336.83,417.333 2378.17,417.667 2419.5,418C 2456.59,420.929 2476.93,440.763 2480.5,477.5 Z"/></g>
<g><path style="opacity:0.988" fill="#cccccc" d="M 119.5,354.5 C 121.027,354.427 122.027,355.094 122.5,356.5C 120.973,356.573 119.973,355.906 119.5,354.5 Z"/></g>
<g><path style="opacity:0.984" fill="#cccccc" d="M 221.5,440.5 C 223.027,440.427 224.027,441.094 224.5,442.5C 222.973,442.573 221.973,441.906 221.5,440.5 Z"/></g>
<g><path style="opacity:0.796" fill="#c4c4c4" d="M 270.5,481.5 C 272.027,481.427 273.027,482.094 273.5,483.5C 271.973,483.573 270.973,482.906 270.5,481.5 Z"/></g>
<g><path style="opacity:0.984" fill="#e7e7e7" d="M 274.5,483.5 C 359.834,483.333 445.167,483.5 530.5,484C 529.956,484.717 529.289,485.217 528.5,485.5C 443.833,484.833 359.167,484.167 274.5,483.5 Z"/></g>
<g><path style="opacity:0.956" fill="#fefffe" d="M 1196.5,620.5 C 1211.6,619.069 1225.6,622.236 1238.5,630C 1248.19,637.879 1253.19,648.045 1253.5,660.5C 1244.83,660.666 1236.16,660.5 1227.5,660C 1223.9,647.576 1215.56,641.409 1202.5,641.5C 1186.99,642.172 1179.82,650.172 1181,665.5C 1183.5,670.667 1187.33,674.5 1192.5,677C 1205.91,681.136 1219.24,685.469 1232.5,690C 1252.16,699.503 1259.33,715.003 1254,736.5C 1249.17,750 1240,759.167 1226.5,764C 1206.84,769.516 1188.17,767.183 1170.5,757C 1159.98,749.122 1154.98,738.622 1155.5,725.5C 1164.17,725.5 1172.83,725.5 1181.5,725.5C 1183.39,739.562 1191.56,746.562 1206,746.5C 1220.24,746.573 1228.74,739.74 1231.5,726C 1229.44,716.6 1223.78,710.267 1214.5,707C 1199.33,703.389 1184.67,698.389 1170.5,692C 1158.23,682.552 1153.4,670.052 1156,654.5C 1159.61,638.223 1169.44,627.723 1185.5,623C 1189.31,622.205 1192.98,621.371 1196.5,620.5 Z"/></g>
<g><path style="opacity:0.959" fill="#fefffe" d="M 1868.5,620.5 C 1903.99,618.313 1929.49,632.98 1945,664.5C 1957.12,700.102 1948.96,729.935 1920.5,754C 1890.95,772.035 1861.61,771.702 1832.5,753C 1807.94,732.309 1799.1,706.142 1806,674.5C 1815.63,643.364 1836.46,625.364 1868.5,620.5 Z M 1866.5,642.5 C 1903.4,639.895 1923.06,657.062 1925.5,694C 1923.08,729.689 1904.08,746.689 1868.5,745C 1849.32,740.824 1836.82,729.324 1831,710.5C 1826.12,691.198 1829.45,673.531 1841,657.5C 1848.31,650.271 1856.81,645.271 1866.5,642.5 Z"/></g>
<g><path style="opacity:0.972" fill="#fefffe" d="M 1295.5,622.5 C 1328.83,622.5 1362.17,622.5 1395.5,622.5C 1395.5,629.167 1395.5,635.833 1395.5,642.5C 1382.83,642.5 1370.17,642.5 1357.5,642.5C 1357.5,683.5 1357.5,724.5 1357.5,765.5C 1349.5,765.5 1341.5,765.5 1333.5,765.5C 1333.5,724.5 1333.5,683.5 1333.5,642.5C 1320.83,642.5 1308.17,642.5 1295.5,642.5C 1295.5,635.833 1295.5,629.167 1295.5,622.5 Z"/></g>
<g><path style="opacity:0.964" fill="#fefffe" d="M 1480.5,622.5 C 1490.17,622.5 1499.83,622.5 1509.5,622.5C 1526.45,670.06 1543.11,717.727 1559.5,765.5C 1551.16,765.666 1542.83,765.5 1534.5,765C 1530.67,755.67 1527.33,746.17 1524.5,736.5C 1504.82,736.167 1485.16,736.5 1465.5,737.5C 1462.17,746.5 1458.83,755.5 1455.5,764.5C 1447.19,765.498 1438.86,765.831 1430.5,765.5C 1446.87,717.753 1463.54,670.086 1480.5,622.5 Z M 1494.5,652.5 C 1502.04,673.623 1509.71,694.79 1517.5,716C 1502.5,716.667 1487.5,716.667 1472.5,716C 1480.14,694.927 1487.47,673.761 1494.5,652.5 Z"/></g>
<g><path style="opacity:0.972" fill="#fefffe" d="M 1594.5,622.5 C 1627.83,622.5 1661.17,622.5 1694.5,622.5C 1694.5,629.167 1694.5,635.833 1694.5,642.5C 1681.83,642.5 1669.17,642.5 1656.5,642.5C 1656.5,683.5 1656.5,724.5 1656.5,765.5C 1648.5,765.5 1640.5,765.5 1632.5,765.5C 1632.5,724.5 1632.5,683.5 1632.5,642.5C 1619.83,642.5 1607.17,642.5 1594.5,642.5C 1594.5,635.833 1594.5,629.167 1594.5,622.5 Z"/></g>
<g><path style="opacity:0.976" fill="#fefffe" d="M 1737.5,622.5 C 1745.5,622.5 1753.5,622.5 1761.5,622.5C 1761.5,670.167 1761.5,717.833 1761.5,765.5C 1753.5,765.5 1745.5,765.5 1737.5,765.5C 1737.5,717.833 1737.5,670.167 1737.5,622.5 Z"/></g>
<g><path style="opacity:0.97" fill="#fefffe" d="M 1992.5,622.5 C 2001.09,622.183 2009.59,622.517 2018,623.5C 2040.42,658.005 2063.08,692.338 2086,726.5C 2086.5,691.835 2086.67,657.168 2086.5,622.5C 2094.5,622.5 2102.5,622.5 2110.5,622.5C 2110.5,670.167 2110.5,717.833 2110.5,765.5C 2101.91,765.817 2093.41,765.483 2085,764.5C 2062.58,729.995 2039.92,695.662 2017,661.5C 2016.5,696.165 2016.33,730.832 2016.5,765.5C 2008.5,765.5 2000.5,765.5 1992.5,765.5C 1992.5,717.833 1992.5,670.167 1992.5,622.5 Z"/></g>
<g><path style="opacity:1" fill="#fdfdfd" d="M 770.5,655.5 C 770.294,658.495 770.96,661.162 772.5,663.5C 777.785,682.567 782.451,701.9 786.5,721.5C 786.294,724.495 786.96,727.162 788.5,729.5C 790.991,737.597 792.991,745.93 794.5,754.5C 794.294,757.495 794.96,760.162 796.5,762.5C 806.102,799.58 815.102,836.913 823.5,874.5C 823.41,877.152 824.076,879.485 825.5,881.5C 827.214,887.399 828.547,893.399 829.5,899.5C 829.259,901.898 829.926,903.898 831.5,905.5C 832.15,907.435 832.483,909.435 832.5,911.5C 832.294,914.495 832.96,917.162 834.5,919.5C 839.005,929.187 836.672,936.687 827.5,942C 824.167,942.667 820.833,942.667 817.5,942C 813.89,940.056 810.557,937.723 807.5,935C 788.974,919.302 770.641,903.468 752.5,887.5C 752.027,886.094 751.027,885.427 749.5,885.5C 743.845,881.177 738.512,876.51 733.5,871.5C 732.738,869.738 731.404,868.738 729.5,868.5C 724.179,864.511 719.179,860.178 714.5,855.5C 714.027,854.094 713.027,853.427 711.5,853.5C 705.845,849.177 700.512,844.51 695.5,839.5C 695.027,838.094 694.027,837.427 692.5,837.5C 663.422,813.631 634.755,789.298 606.5,764.5C 605.738,762.738 604.404,761.738 602.5,761.5C 594.609,756.501 592.609,749.834 596.5,741.5C 597.906,741.027 598.573,740.027 598.5,738.5C 647.895,700.291 697.895,662.791 748.5,626C 755.345,624.67 760.845,626.836 765,632.5C 767.353,640.056 769.187,647.723 770.5,655.5 Z"/></g>
<g><path style="opacity:0.918" fill="#cbcbcb" d="M 770.5,655.5 C 771.768,657.905 772.435,660.572 772.5,663.5C 770.96,661.162 770.294,658.495 770.5,655.5 Z"/></g>
<g><path style="opacity:0.925" fill="#cbcbcb" d="M 786.5,721.5 C 787.768,723.905 788.435,726.572 788.5,729.5C 786.96,727.162 786.294,724.495 786.5,721.5 Z"/></g>
<g><path style="opacity:0.949" fill="#cdcdcd" d="M 598.5,738.5 C 598.573,740.027 597.906,741.027 596.5,741.5C 596.427,739.973 597.094,738.973 598.5,738.5 Z"/></g>
<g><path style="opacity:0.992" fill="#cecece" d="M 602.5,761.5 C 604.404,761.738 605.738,762.738 606.5,764.5C 604.596,764.262 603.262,763.262 602.5,761.5 Z"/></g>
<g><path style="opacity:0.933" fill="#cbcbcb" d="M 794.5,754.5 C 795.768,756.905 796.435,759.572 796.5,762.5C 794.96,760.162 794.294,757.495 794.5,754.5 Z"/></g>
<g><path style="opacity:0.976" fill="#c7c7c7" d="M 692.5,837.5 C 694.027,837.427 695.027,838.094 695.5,839.5C 693.973,839.573 692.973,838.906 692.5,837.5 Z"/></g>
<g><path style="opacity:0.98" fill="#cacaca" d="M 711.5,853.5 C 713.027,853.427 714.027,854.094 714.5,855.5C 712.973,855.573 711.973,854.906 711.5,853.5 Z"/></g>
<g><path style="opacity:0.996" fill="#cdcdcd" d="M 729.5,868.5 C 731.404,868.738 732.738,869.738 733.5,871.5C 731.596,871.262 730.262,870.262 729.5,868.5 Z"/></g>
<g><path style="opacity:0.335" fill="#b9b9b9" d="M 823.5,874.5 C 824.924,876.515 825.59,878.848 825.5,881.5C 824.076,879.485 823.41,877.152 823.5,874.5 Z"/></g>
<g><path style="opacity:0.988" fill="#cccccc" d="M 749.5,885.5 C 751.027,885.427 752.027,886.094 752.5,887.5C 750.973,887.573 749.973,886.906 749.5,885.5 Z"/></g>
<g><path style="opacity:0.984" fill="#c7c7c7" d="M 829.5,899.5 C 830.738,901.214 831.405,903.214 831.5,905.5C 829.926,903.898 829.259,901.898 829.5,899.5 Z"/></g>
<g><path style="opacity:0.957" fill="#cfcfcf" d="M 832.5,911.5 C 833.768,913.905 834.435,916.572 834.5,919.5C 832.96,917.162 832.294,914.495 832.5,911.5 Z"/></g>
</svg>
