<?xml version="1.0" encoding="UTF-8"?>
<!DOCTYPE svg PUBLIC "-//W3C//DTD SVG 1.1//EN" "http://www.w3.org/Graphics/SVG/1.1/DTD/svg11.dtd">
<svg xmlns="http://www.w3.org/2000/svg" version="1.1" width="1501px" height="1615px" style="shape-rendering:geometricPrecision; text-rendering:geometricPrecision; image-rendering:optimizeQuality; fill-rule:evenodd; clip-rule:evenodd" xmlns:xlink="http://www.w3.org/1999/xlink">
<g><path style="opacity:0.989" fill="#fefffe" d="M 894.5,-0.5 C 897.833,-0.5 901.167,-0.5 904.5,-0.5C 912.379,1.54277 917.545,6.54277 920,14.5C 936.436,82.8482 952.936,151.182 969.5,219.5C 968.916,223.58 966.916,226.746 963.5,229C 886.148,249.785 808.648,269.951 731,289.5C 718.195,288.695 711.362,281.862 710.5,269C 710.628,265.323 711.461,261.823 713,258.5C 770.442,173.393 828.276,88.5593 886.5,4C 889.099,2.20496 891.766,0.704964 894.5,-0.5 Z"/></g>
<g><path style="opacity:0.991" fill="#fefffe" d="M 704.5,60.5 C 712.942,59.1108 717.942,62.6108 719.5,71C 718.724,73.9947 717.557,76.828 716,79.5C 659.624,165.752 603.124,251.919 546.5,338C 459.363,361.951 372.03,385.285 284.5,408C 272.535,408.603 268.369,403.103 272,391.5C 318.916,318.67 365.583,245.67 412,172.5C 414.139,169.061 416.639,165.894 419.5,163C 514.636,128.902 609.636,94.7349 704.5,60.5 Z"/></g>
<g><path style="opacity:0.984" fill="#fefffe" d="M 242.5,225.5 C 253.997,226.827 257.497,232.827 253,243.5C 208.333,308.167 163.667,372.833 119,437.5C 114.782,442.63 109.616,443.796 103.5,441C 101.951,439.786 100.785,438.286 100,436.5C 86,393.833 72,351.167 58,308.5C 53.3449,297.827 56.5116,290.993 67.5,288C 125.969,267.235 184.303,246.401 242.5,225.5 Z"/></g>
<g><path style="opacity:0.996" fill="#fefffe" d="M 1500.5,490.5 C 1500.5,494.167 1500.5,497.833 1500.5,501.5C 1499.3,504.234 1497.8,506.901 1496,509.5C 1012.08,873.545 528.244,1237.71 44.5,1602C 38.4105,1606.7 32.0772,1610.87 25.5,1614.5C 21.8333,1614.5 18.1667,1614.5 14.5,1614.5C 6.73787,1611.74 1.73787,1606.41 -0.5,1598.5C -0.5,1595.5 -0.5,1592.5 -0.5,1589.5C 62.0109,1453.47 124.844,1317.47 188,1181.5C 390.077,1029.21 592.244,877.045 794.5,725C 666.833,724.667 539.167,724.333 411.5,724C 405.221,720.054 399.221,715.721 393.5,711C 315.46,644.624 237.126,578.624 158.5,513C 150.645,505.994 148.479,497.494 152,487.5C 154.659,481.508 159.159,477.675 165.5,476C 605.5,475.333 1045.5,475.333 1485.5,476C 1493.02,478.351 1498.02,483.184 1500.5,490.5 Z"/></g>
<g><path style="opacity:0.992" fill="#fefffe" d="M 1120.5,937.5 C 1134.97,934.971 1144.14,940.638 1148,954.5C 1182.51,1097.54 1217.18,1240.54 1252,1383.5C 1254.19,1401.97 1246.02,1410.81 1227.5,1410C 1223.38,1408.78 1219.72,1406.78 1216.5,1404C 1109.33,1313.5 1002.17,1223 895,1132.5C 889.21,1121.49 890.71,1111.66 899.5,1103C 973.235,1047.81 1046.9,992.646 1120.5,937.5 Z"/></g>
</svg>
