<?xml version="1.0" encoding="UTF-8"?>
<!DOCTYPE svg PUBLIC "-//W3C//DTD SVG 1.1//EN" "http://www.w3.org/Graphics/SVG/1.1/DTD/svg11.dtd">
<svg xmlns="http://www.w3.org/2000/svg" version="1.1" width="1371px" height="1080px" style="shape-rendering:geometricPrecision; text-rendering:geometricPrecision; image-rendering:optimizeQuality; fill-rule:evenodd; clip-rule:evenodd" xmlns:xlink="http://www.w3.org/1999/xlink">
<g><path style="opacity:0.975" fill="#fefffe" d="M 647.5,317.5 C 656.716,316.293 664.216,319.293 670,326.5C 715.5,402 761,477.5 806.5,553C 789.833,553.667 773.167,553.667 756.5,553C 744.968,534.298 733.635,515.464 722.5,496.5C 675.17,495.333 627.837,495.167 580.5,496C 569.167,515 557.833,534 546.5,553C 530.823,553.833 515.156,553.666 499.5,552.5C 543.134,479.036 586.968,405.702 631,332.5C 634.822,325.504 640.322,320.504 647.5,317.5 Z M 650.5,376.5 C 667.637,404.496 684.637,432.662 701.5,461C 668.162,461.833 634.828,461.667 601.5,460.5C 617.888,432.466 634.222,404.466 650.5,376.5 Z"/></g>
<g><path style="opacity:0.973" fill="#fefffe" d="M 108.5,320.5 C 166.833,320.5 225.167,320.5 283.5,320.5C 283.5,334.5 283.5,348.5 283.5,362.5C 225.499,362.333 167.499,362.5 109.5,363C 95.3229,366.332 88.3229,375.332 88.5,390C 88.7394,404.825 96.0728,413.825 110.5,417C 151.833,417.333 193.167,417.667 234.5,418C 274.814,421.815 295.147,443.981 295.5,484.5C 294.462,525.704 273.462,548.538 232.5,553C 171.168,553.5 109.834,553.667 48.5,553.5C 48.5,539.5 48.5,525.5 48.5,511.5C 109.501,511.667 170.501,511.5 231.5,511C 246.973,507.525 255.306,497.858 256.5,482C 255.647,464.147 246.314,454.48 228.5,453C 187.167,452.667 145.833,452.333 104.5,452C 61.4296,444.046 41.9296,418.213 46,374.5C 50.189,348.31 65.0223,331.476 90.5,324C 96.581,322.503 102.581,321.336 108.5,320.5 Z"/></g>
<g><path style="opacity:0.981" fill="#fefffe" d="M 315.5,320.5 C 387.833,320.5 460.167,320.5 532.5,320.5C 532.5,334.5 532.5,348.5 532.5,362.5C 503.167,362.5 473.833,362.5 444.5,362.5C 444.5,426.167 444.5,489.833 444.5,553.5C 430.833,553.5 417.167,553.5 403.5,553.5C 403.5,489.833 403.5,426.167 403.5,362.5C 374.167,362.5 344.833,362.5 315.5,362.5C 315.5,348.5 315.5,334.5 315.5,320.5 Z"/></g>
<g><path style="opacity:0.98" fill="#fefffe" d="M 830.5,320.5 C 889.168,320.333 947.834,320.5 1006.5,321C 1050.87,325.702 1075.7,350.202 1081,394.5C 1083.79,418.543 1078.46,440.543 1065,460.5C 1056.5,470.344 1046.33,477.844 1034.5,483C 1057.68,506.014 1080.68,529.18 1103.5,552.5C 1083.84,553.666 1064.18,553.833 1044.5,553C 1025.17,531.667 1005.83,510.333 986.5,489C 948.168,488.5 909.835,488.333 871.5,488.5C 871.5,510.167 871.5,531.833 871.5,553.5C 857.833,553.5 844.167,553.5 830.5,553.5C 830.5,475.833 830.5,398.167 830.5,320.5 Z M 871.5,362.5 C 916.835,362.333 962.168,362.5 1007.5,363C 1030.16,368.43 1041.16,382.93 1040.5,406.5C 1041.35,433.139 1028.68,448.306 1002.5,452C 958.821,452.79 915.155,452.623 871.5,451.5C 871.5,421.833 871.5,392.167 871.5,362.5 Z"/></g>
<g><path style="opacity:0.973" fill="#fefffe" d="M 1370.5,477.5 C 1370.5,482.167 1370.5,486.833 1370.5,491.5C 1366.23,528.934 1345.23,549.434 1307.5,553C 1246.17,553.5 1184.83,553.667 1123.5,553.5C 1123.5,539.5 1123.5,525.5 1123.5,511.5C 1184.5,511.667 1245.5,511.5 1306.5,511C 1325.82,505.882 1333.65,493.382 1330,473.5C 1327.21,462.839 1320.38,456.339 1309.5,454C 1266.2,452.699 1222.87,452.032 1179.5,452C 1142.03,446.265 1122.03,424.432 1119.5,386.5C 1121.96,346.873 1142.96,325.039 1182.5,321C 1241.17,320.5 1299.83,320.333 1358.5,320.5C 1358.5,334.5 1358.5,348.5 1358.5,362.5C 1300.17,362.333 1241.83,362.5 1183.5,363C 1167.08,368.649 1160.58,380.149 1164,397.5C 1166.69,408.854 1173.86,415.354 1185.5,417C 1226.83,417.333 1268.17,417.667 1309.5,418C 1346.59,420.929 1366.93,440.763 1370.5,477.5 Z"/></g>
<g><path style="opacity:0.956" fill="#fefffe" d="M 86.5,620.5 C 101.603,619.069 115.603,622.236 128.5,630C 138.19,637.879 143.19,648.045 143.5,660.5C 134.827,660.666 126.16,660.5 117.5,660C 113.896,647.576 105.563,641.409 92.5,641.5C 76.9887,642.172 69.8221,650.172 71,665.5C 73.5,670.667 77.3333,674.5 82.5,677C 95.9063,681.136 109.24,685.469 122.5,690C 142.163,699.503 149.33,715.003 144,736.5C 139.167,750 130,759.167 116.5,764C 96.8371,769.516 78.1705,767.183 60.5,757C 49.9777,749.122 44.9777,738.622 45.5,725.5C 54.1667,725.5 62.8333,725.5 71.5,725.5C 73.3913,739.562 81.558,746.562 96,746.5C 110.243,746.573 118.743,739.74 121.5,726C 119.442,716.6 113.775,710.267 104.5,707C 89.3339,703.389 74.6673,698.389 60.5,692C 48.2323,682.552 43.399,670.052 46,654.5C 49.609,638.223 59.4424,627.723 75.5,623C 79.3121,622.205 82.9788,621.371 86.5,620.5 Z"/></g>
<g><path style="opacity:0.959" fill="#fefffe" d="M 758.5,620.5 C 793.987,618.313 819.487,632.98 835,664.5C 847.123,700.102 838.957,729.935 810.5,754C 780.948,772.035 751.614,771.702 722.5,753C 697.936,732.309 689.102,706.142 696,674.5C 705.627,643.364 726.46,625.364 758.5,620.5 Z M 756.5,642.5 C 793.397,639.895 813.063,657.062 815.5,694C 813.081,729.689 794.081,746.689 758.5,745C 739.322,740.824 726.822,729.324 721,710.5C 716.116,691.198 719.45,673.531 731,657.5C 738.306,650.271 746.806,645.271 756.5,642.5 Z"/></g>
<g><path style="opacity:0.972" fill="#fefffe" d="M 185.5,622.5 C 218.833,622.5 252.167,622.5 285.5,622.5C 285.5,629.167 285.5,635.833 285.5,642.5C 272.833,642.5 260.167,642.5 247.5,642.5C 247.5,683.5 247.5,724.5 247.5,765.5C 239.5,765.5 231.5,765.5 223.5,765.5C 223.5,724.5 223.5,683.5 223.5,642.5C 210.833,642.5 198.167,642.5 185.5,642.5C 185.5,635.833 185.5,629.167 185.5,622.5 Z"/></g>
<g><path style="opacity:0.964" fill="#fefffe" d="M 370.5,622.5 C 380.167,622.5 389.833,622.5 399.5,622.5C 416.446,670.06 433.112,717.727 449.5,765.5C 441.16,765.666 432.827,765.5 424.5,765C 420.668,755.67 417.334,746.17 414.5,736.5C 394.822,736.167 375.155,736.5 355.5,737.5C 352.167,746.5 348.833,755.5 345.5,764.5C 337.193,765.498 328.86,765.831 320.5,765.5C 336.871,717.753 353.537,670.086 370.5,622.5 Z M 384.5,652.5 C 392.043,673.623 399.71,694.79 407.5,716C 392.5,716.667 377.5,716.667 362.5,716C 370.135,694.927 377.469,673.761 384.5,652.5 Z"/></g>
<g><path style="opacity:0.972" fill="#fefffe" d="M 484.5,622.5 C 517.833,622.5 551.167,622.5 584.5,622.5C 584.5,629.167 584.5,635.833 584.5,642.5C 571.833,642.5 559.167,642.5 546.5,642.5C 546.5,683.5 546.5,724.5 546.5,765.5C 538.5,765.5 530.5,765.5 522.5,765.5C 522.5,724.5 522.5,683.5 522.5,642.5C 509.833,642.5 497.167,642.5 484.5,642.5C 484.5,635.833 484.5,629.167 484.5,622.5 Z"/></g>
<g><path style="opacity:0.976" fill="#fefffe" d="M 627.5,622.5 C 635.5,622.5 643.5,622.5 651.5,622.5C 651.5,670.167 651.5,717.833 651.5,765.5C 643.5,765.5 635.5,765.5 627.5,765.5C 627.5,717.833 627.5,670.167 627.5,622.5 Z"/></g>
<g><path style="opacity:0.97" fill="#fefffe" d="M 882.5,622.5 C 891.085,622.183 899.585,622.517 908,623.5C 930.418,658.005 953.085,692.338 976,726.5C 976.5,691.835 976.667,657.168 976.5,622.5C 984.5,622.5 992.5,622.5 1000.5,622.5C 1000.5,670.167 1000.5,717.833 1000.5,765.5C 991.915,765.817 983.415,765.483 975,764.5C 952.582,729.995 929.915,695.662 907,661.5C 906.5,696.165 906.333,730.832 906.5,765.5C 898.5,765.5 890.5,765.5 882.5,765.5C 882.5,717.833 882.5,670.167 882.5,622.5 Z"/></g>
</svg>
